<?xml version="1.0" encoding="UTF-8" standalone="no"?>
<!-- Created with Inkscape (http://www.inkscape.org/) -->

<svg
   width="210mm"
   height="210mm"
   viewBox="0 0 210 210"
   version="1.1"
   id="svg1"
   xml:space="preserve"
   xmlns:xlink="http://www.w3.org/1999/xlink"
   xmlns="http://www.w3.org/2000/svg"
   xmlns:svg="http://www.w3.org/2000/svg"><defs
     id="defs1"><pattern
       xlink:href="#Grid1"
       preserveAspectRatio="xMidYMid"
       id="pattern44"
       patternTransform="matrix(0.53709075,0,0,0.53709075,-7.4802701,-88.616644)"
       x="0"
       y="0" /><pattern
       patternUnits="userSpaceOnUse"
       width="20"
       height="20"
       preserveAspectRatio="xMidYMid"
       id="Grid1"
       x="0"
       y="0"
       style="fill:#2f3d61"><g
         id="g63950-5"><rect
           style="fill-opacity:1;stroke:none;stroke-width:1;stroke-dasharray:none"
           id="rect62492-2"
           width="1"
           height="20"
           x="9.5"
           y="0" /><rect
           style="fill-opacity:1;stroke:none;stroke-width:1;stroke-dasharray:none"
           id="rect63583-4"
           width="1"
           height="20"
           x="-10.5"
           y="0"
           transform="rotate(-90)" /></g></pattern></defs><g
     id="layer1"><g
       id="g1"
       style="display:inline"
       transform="matrix(0.26458333,0,0,0.26458333,86.921364,122.78919)"><path
         style="fill:#ffffff;fill-opacity:1;stroke:none;stroke-width:10;stroke-linecap:round;stroke-linejoin:bevel;stroke-dasharray:none;stroke-dashoffset:50;stroke-opacity:1;paint-order:fill markers stroke"
         d="m -255.7756,161.77816 292.8418,166.6035 c 0,0 288.56641,-166.6035 288.56641,-166.6035 V -173.89763 L 34.92753,-341.73552 -255.7756,-173.89763 Z"
         id="path4" /><path
         d="M 68.32792,-464.08513 A 396.8504,396.8504 0 0 0 -328.52169,-67.235519 396.8504,396.8504 0 0 0 -255.7756,161.77816 V -173.89763 L 34.927528,-341.73552 325.63261,-173.89763 V 161.77816 L 37.0662,328.38167 A 396.8504,396.8504 0 0 0 68.32792,329.61605 396.8504,396.8504 0 0 0 465.17949,-67.235519 396.8504,396.8504 0 0 0 68.32792,-464.08513 Z"
         style="display:inline;fill:#2f3d61;fill-opacity:1;stroke-width:3.77953;stroke-linecap:round;stroke-linejoin:bevel;paint-order:fill markers stroke"
         id="path3" /><g
         id="g2"
         transform="matrix(8.5638691,0,0,8.5638691,-550.22981,234.05389)"
         style="display:inline;stroke:#2f3d61;stroke-width:1.1677;stroke-dasharray:9.34157, 1.1677;stroke-dashoffset:5.83848;stroke-opacity:1"><path
           style="display:none;fill:#2f3d61;fill-opacity:1;stroke:#2f3d61;stroke-width:1.1677;stroke-dasharray:9.34157, 1.1677;stroke-dashoffset:5.83848;stroke-opacity:1"
           id="path3-1"
           d="M 102.27406,-47.636365 V -8.4396347 L 68.328704,11.158715 34.383346,-8.4396347 l -2e-6,-39.1967303 33.94536,-19.59837 z" /><circle
           style="display:inline;mix-blend-mode:normal;fill:url(#pattern44);fill-opacity:1;stroke:#2f3d61;stroke-width:1.1677;stroke-dasharray:none;stroke-dashoffset:5.83848;stroke-opacity:1"
           id="path35"
           transform="rotate(-45)"
           cy="27.93206"
           cx="67.712433"
           r="24.43763" /></g></g></g></svg>
